<svg version="1.1" id="Layer_1" xmlns="http://www.w3.org/2000/svg" xmlns:xlink="http://www.w3.org/1999/xlink" x="0px" y="0px"
	 width="100%" viewBox="0 0 512 512" enable-background="new 0 0 512 512" xml:space="preserve">
<path fill="#05B443" opacity="1.000000" stroke="none" 
	d="
M225.000000,0.999999 
	C246.020889,1.000000 267.041779,1.000000 288.441193,1.416557 
	C291.319458,2.279904 293.842957,2.623361 296.314880,3.191235 
	C307.476746,5.755391 318.715973,8.045873 329.758057,11.055868 
	C355.184692,17.987001 378.579529,29.481447 400.437286,44.058033 
	C418.068115,55.815750 433.812012,69.860619 447.984131,85.593513 
	C453.697205,91.935745 459.015778,98.667107 464.129608,105.508606 
	C475.884338,121.234512 485.533936,138.187515 493.116974,156.326111 
	C500.988312,175.154343 507.064178,194.470413 510.091980,214.710052 
	C510.517548,217.554718 512.004395,220.240616 513.000000,223.000000 
	C513.000000,245.354233 513.000000,267.708466 512.587036,290.447754 
	C511.454956,293.941528 510.544556,297.019958 510.047699,300.163757 
	C506.674133,321.509308 500.566803,342.080505 491.596008,361.685272 
	C476.913483,393.772369 457.049072,422.142792 430.716309,445.972443 
	C415.857086,459.419189 400.022522,471.365570 382.552917,481.053864 
	C354.588623,496.562164 324.940094,507.256836 293.015167,511.095306 
	C292.277771,511.184021 291.668823,512.341187 291.000000,513.000000 
	C268.645782,513.000000 246.291550,513.000000 223.584854,512.589844 
	C217.519867,511.088287 211.775955,510.138641 206.100037,508.881958 
	C174.047394,501.785248 143.871643,490.056641 116.409172,471.874298 
	C95.835732,458.253052 77.609337,442.017059 61.521240,423.215881 
	C50.017597,409.772308 39.952686,395.385345 31.598362,379.931061 
	C16.729317,352.425568 6.688806,323.197021 2.904903,291.990997 
	C2.816393,291.261078 1.658888,290.660767 1.000000,290.000000 
	C1.000000,268.645782 1.000000,247.291550 1.416126,225.559479 
	C2.216276,224.340652 2.805247,223.533829 2.951955,222.653305 
	C4.139324,215.526901 4.829267,208.291245 6.446561,201.267487 
	C12.753552,173.876801 22.878946,148.009171 37.509380,123.902206 
	C52.670654,98.920555 71.745895,77.282364 94.071404,58.696228 
	C114.248299,41.898830 136.674423,28.500725 161.266785,18.893116 
	C181.069824,11.156575 201.334839,5.371396 222.502335,2.916376 
	C223.396942,2.812619 224.170212,1.662603 225.000000,0.999999 
M368.591187,331.825073 
	C377.351227,331.825073 386.111298,331.825073 395.103882,331.825073 
	C395.103882,325.773468 395.103912,320.450012 395.103912,315.126526 
	C395.103760,257.645416 395.106537,200.164291 395.099182,142.683167 
	C395.098389,136.321625 394.264435,135.472260 387.944580,135.439453 
	C380.947052,135.403122 373.947266,135.532730 366.952209,135.396744 
	C362.476501,135.309753 360.627197,137.175232 360.833923,141.705093 
	C361.081421,147.128815 360.892303,152.572464 360.892303,157.922424 
	C357.266113,157.922424 354.336487,157.922424 351.027802,157.922424 
	C351.027802,155.143021 351.109589,152.673431 351.011597,150.210968 
	C350.772186,144.194061 347.347046,140.370575 341.367828,140.322006 
	C321.709106,140.162369 302.047272,140.155167 282.388733,140.326782 
	C276.160675,140.381149 272.292999,144.249695 272.252930,150.397217 
	C272.107452,172.722137 272.106964,195.049179 272.252045,217.374115 
	C272.292877,223.654953 276.075012,227.547302 282.221344,227.598053 
	C302.046722,227.761719 321.875153,227.756287 341.700562,227.592026 
	C347.341705,227.545288 350.745117,223.682358 351.001984,217.910660 
	C351.118652,215.289597 351.021790,212.659012 351.021790,209.999847 
	C354.566467,209.999847 357.588989,209.999847 361.137604,209.999847 
	C361.137604,250.802979 361.137604,291.178864 361.137604,331.825073 
	C363.655182,331.825073 365.636322,331.825073 368.591187,331.825073 
M149.987595,235.473145 
	C144.058105,240.751175 138.138687,246.040604 132.189804,251.296661 
	C131.127045,252.235672 130.029678,253.627441 128.800156,253.809464 
	C116.863075,255.576675 109.966270,263.296844 107.238380,274.066223 
	C104.773224,283.798370 104.060913,294.013306 103.069870,304.064056 
	C102.554932,309.286346 105.238693,312.256714 110.506317,312.798004 
	C114.928078,313.252380 119.433617,312.891357 123.862984,312.891357 
	C126.783546,291.487213 138.816971,279.584808 157.081818,279.810669 
	C174.846741,280.030396 187.107056,292.536957 189.246124,312.800659 
	C214.460800,312.800659 239.696213,312.800659 264.897400,312.800659 
	C267.345398,292.347931 279.179138,280.167725 296.701294,279.818787 
	C315.055542,279.453278 327.089386,291.205078 330.408020,313.012177 
	C332.322906,313.012177 334.298340,313.118683 336.258820,312.992889 
	C343.097321,312.554138 345.690613,309.760895 345.732513,302.867493 
	C345.758850,298.534729 345.691437,294.201080 345.747437,289.868927 
	C345.794220,286.247894 344.213318,284.013763 340.765045,282.688354 
	C339.344757,282.142426 337.663422,280.690063 337.264740,279.313019 
	C332.341309,262.307526 321.078674,253.596252 303.286530,253.446457 
	C293.454803,253.363678 283.608459,253.720856 273.796692,253.270218 
	C270.412292,253.114777 266.680206,251.747482 263.866241,249.823349 
	C258.386444,246.076416 253.583206,241.356964 248.246185,237.380630 
	C238.758118,230.311600 228.163376,226.615402 216.128342,226.963547 
	C204.972031,227.286255 193.796951,227.167587 182.633987,226.994858 
	C171.194489,226.817871 160.552124,229.487778 149.987595,235.473145 
M315.422699,296.102417 
	C305.949310,286.601837 293.501404,285.245483 283.385315,292.721619 
	C276.937500,297.486755 273.720032,303.976135 273.579041,311.997803 
	C273.437286,320.066986 277.340240,326.354584 283.045532,331.856201 
	C245.301437,331.856201 208.199875,331.856201 170.451141,331.856201 
	C183.226700,321.273621 182.540558,305.211609 174.549545,296.150330 
	C166.102570,286.571991 151.803818,285.203308 141.679092,293.226196 
	C136.940582,296.981049 133.874573,301.861176 132.961197,307.895203 
	C131.512390,317.466156 134.855042,325.353760 143.114456,332.399078 
	C133.105087,332.399078 124.492805,332.319672 115.883301,332.439575 
	C112.603554,332.485260 107.923683,331.308746 108.047913,336.708038 
	C108.168839,341.963165 112.769775,340.817078 116.075348,340.818848 
	C188.208817,340.856903 260.342316,340.847931 332.475800,340.847809 
	C333.475342,340.847809 334.682037,341.205536 335.433960,340.773285 
	C337.371368,339.659576 340.332458,338.447357 340.666931,336.818970 
	C341.345612,333.514801 338.440735,332.439056 335.477295,332.419708 
	C329.147156,332.378296 322.816467,332.421844 316.486267,332.382874 
	C315.106171,332.374390 313.727295,332.166016 312.025330,332.022491 
	C323.354095,319.128967 324.404510,308.581604 315.422699,296.102417 
M357.563995,378.576447 
	C373.207764,378.576111 388.851746,378.534027 404.495209,378.603668 
	C408.589050,378.621887 411.202515,377.612946 411.099182,372.749512 
	C410.908264,363.766724 410.964264,354.775909 411.080780,345.790558 
	C411.133850,341.696533 409.192291,340.099548 405.310944,340.106140 
	C387.004456,340.137268 368.697723,340.160583 350.391449,340.089935 
	C346.071960,340.073242 344.480469,342.109192 344.559967,346.242462 
	C344.691132,353.063263 344.592285,359.888458 344.592010,366.711823 
	C344.591522,378.575897 344.592072,378.575897 357.563995,378.576447 
z"/>
<path fill="#000000" opacity="1.000000" stroke="none" 
	d="
M224.531342,0.999999 
	C224.170212,1.662603 223.396942,2.812619 222.502335,2.916376 
	C201.334839,5.371396 181.069824,11.156575 161.266785,18.893116 
	C136.674423,28.500725 114.248299,41.898830 94.071404,58.696228 
	C71.745895,77.282364 52.670654,98.920555 37.509380,123.902206 
	C22.878946,148.009171 12.753552,173.876801 6.446561,201.267487 
	C4.829267,208.291245 4.139324,215.526901 2.951955,222.653305 
	C2.805247,223.533829 2.216276,224.340652 1.416126,225.090820 
	C1.000000,150.406296 1.000000,75.812576 1.000000,1.000000 
	C75.354088,1.000000 149.708389,1.000000 224.531342,0.999999 
z"/>
<path fill="#000000" opacity="1.000000" stroke="none" 
	d="
M513.000000,222.531342 
	C512.004395,220.240616 510.517548,217.554718 510.091980,214.710052 
	C507.064178,194.470413 500.988312,175.154343 493.116974,156.326111 
	C485.533936,138.187515 475.884338,121.234512 464.129608,105.508606 
	C459.015778,98.667107 453.697205,91.935745 447.984131,85.593513 
	C433.812012,69.860619 418.068115,55.815750 400.437286,44.058033 
	C378.579529,29.481447 355.184692,17.987001 329.758057,11.055868 
	C318.715973,8.045873 307.476746,5.755391 296.314880,3.191235 
	C293.842957,2.623361 291.319458,2.279904 288.909851,1.416557 
	C363.593353,1.000000 438.186737,1.000000 513.000000,1.000000 
	C513.000000,74.687416 513.000000,148.375046 513.000000,222.531342 
z"/>
<path fill="#000000" opacity="1.000000" stroke="none" 
	d="
M1.000000,290.468658 
	C1.658888,290.660767 2.816393,291.261078 2.904903,291.990997 
	C6.688806,323.197021 16.729317,352.425568 31.598362,379.931061 
	C39.952686,395.385345 50.017597,409.772308 61.521240,423.215881 
	C77.609337,442.017059 95.835732,458.253052 116.409172,471.874298 
	C143.871643,490.056641 174.047394,501.785248 206.100037,508.881958 
	C211.775955,510.138641 217.519867,511.088287 223.116196,512.589844 
	C149.072800,513.000000 75.145607,513.000000 1.000000,513.000000 
	C1.000000,438.979248 1.000000,364.958282 1.000000,290.468658 
z"/>
<path fill="#000000" opacity="1.000000" stroke="none" 
	d="
M291.468658,513.000000 
	C291.668823,512.341187 292.277771,511.184021 293.015167,511.095306 
	C324.940094,507.256836 354.588623,496.562164 382.552917,481.053864 
	C400.022522,471.365570 415.857086,459.419189 430.716309,445.972443 
	C457.049072,422.142792 476.913483,393.772369 491.596008,361.685272 
	C500.566803,342.080505 506.674133,321.509308 510.047699,300.163757 
	C510.544556,297.019958 511.454956,293.941528 512.587036,290.916443 
	C513.000000,364.927032 513.000000,438.854095 513.000000,513.000000 
	C439.312592,513.000000 365.624939,513.000000 291.468658,513.000000 
z"/>
<path fill="#FBFCFB" opacity="1.000000" stroke="none" 
	d="
M368.104309,331.825073 
	C365.636322,331.825073 363.655182,331.825073 361.137604,331.825073 
	C361.137604,291.178864 361.137604,250.802979 361.137604,209.999847 
	C357.588989,209.999847 354.566467,209.999847 351.021790,209.999847 
	C351.021790,212.659012 351.118652,215.289597 351.001984,217.910660 
	C350.745117,223.682358 347.341705,227.545288 341.700562,227.592026 
	C321.875153,227.756287 302.046722,227.761719 282.221344,227.598053 
	C276.075012,227.547302 272.292877,223.654953 272.252045,217.374115 
	C272.106964,195.049179 272.107452,172.722137 272.252930,150.397217 
	C272.292999,144.249695 276.160675,140.381149 282.388733,140.326782 
	C302.047272,140.155167 321.709106,140.162369 341.367828,140.322006 
	C347.347046,140.370575 350.772186,144.194061 351.011597,150.210968 
	C351.109589,152.673431 351.027802,155.143021 351.027802,157.922424 
	C354.336487,157.922424 357.266113,157.922424 360.892303,157.922424 
	C360.892303,152.572464 361.081421,147.128815 360.833923,141.705093 
	C360.627197,137.175232 362.476501,135.309753 366.952209,135.396744 
	C373.947266,135.532730 380.947052,135.403122 387.944580,135.439453 
	C394.264435,135.472260 395.098389,136.321625 395.099182,142.683167 
	C395.106537,200.164291 395.103760,257.645416 395.103912,315.126526 
	C395.103912,320.450012 395.103882,325.773468 395.103882,331.825073 
	C386.111298,331.825073 377.351227,331.825073 368.104309,331.825073 
M319.792145,186.649063 
	C327.783844,182.032181 330.822845,174.308319 328.339630,164.924911 
	C326.213867,156.892212 320.603394,152.995148 311.144257,152.983765 
	C308.648071,152.980759 306.148499,153.067383 303.656464,152.965714 
	C299.565369,152.798782 297.964172,154.840668 298.027435,158.750290 
	C298.113525,164.074066 298.047394,169.400314 298.047699,174.725494 
	C298.048370,186.374344 297.946564,198.025131 298.166809,209.669830 
	C298.198364,211.337189 299.477234,213.325546 300.783325,214.483658 
	C301.470520,215.093018 304.098816,214.723877 304.730652,213.918228 
	C305.842041,212.501221 306.564453,210.424820 306.621582,208.598648 
	C306.832886,201.844101 306.705658,195.078964 306.705658,188.505173 
	C311.226105,187.929626 315.138153,187.431564 319.792145,186.649063 
M351.713440,167.009995 
	C351.485596,172.082413 351.150726,177.152847 351.057281,182.227737 
	C350.942657,188.453217 351.029968,194.682388 351.029968,200.754837 
	C354.686676,200.754837 357.609680,200.754837 360.676544,200.754837 
	C360.676544,189.428757 360.676544,178.393936 360.676544,166.843613 
	C357.864075,166.843613 355.260284,166.843613 351.713440,167.009995 
z"/>
<path fill="#FBFCFB" opacity="1.000000" stroke="none" 
	d="
M150.300415,235.282776 
	C160.552124,229.487778 171.194489,226.817871 182.633987,226.994858 
	C193.796951,227.167587 204.972031,227.286255 216.128342,226.963547 
	C228.163376,226.615402 238.758118,230.311600 248.246185,237.380630 
	C253.583206,241.356964 258.386444,246.076416 263.866241,249.823349 
	C266.680206,251.747482 270.412292,253.114777 273.796692,253.270218 
	C283.608459,253.720856 293.454803,253.363678 303.286530,253.446457 
	C321.078674,253.596252 332.341309,262.307526 337.264740,279.313019 
	C337.663422,280.690063 339.344757,282.142426 340.765045,282.688354 
	C344.213318,284.013763 345.794220,286.247894 345.747437,289.868927 
	C345.691437,294.201080 345.758850,298.534729 345.732513,302.867493 
	C345.690613,309.760895 343.097321,312.554138 336.258820,312.992889 
	C334.298340,313.118683 332.322906,313.012177 330.408020,313.012177 
	C327.089386,291.205078 315.055542,279.453278 296.701294,279.818787 
	C279.179138,280.167725 267.345398,292.347931 264.897400,312.800659 
	C239.696213,312.800659 214.460800,312.800659 189.246124,312.800659 
	C187.107056,292.536957 174.846741,280.030396 157.081818,279.810669 
	C138.816971,279.584808 126.783546,291.487213 123.862984,312.891357 
	C119.433617,312.891357 114.928078,313.252380 110.506317,312.798004 
	C105.238693,312.256714 102.554932,309.286346 103.069870,304.064056 
	C104.060913,294.013306 104.773224,283.798370 107.238380,274.066223 
	C109.966270,263.296844 116.863075,255.576675 128.800156,253.809464 
	C130.029678,253.627441 131.127045,252.235672 132.189804,251.296661 
	C138.138687,246.040604 144.058105,240.751175 150.300415,235.282776 
M152.613068,271.586334 
	C187.090836,271.586182 221.568863,271.640503 256.045715,271.462250 
	C258.320709,271.450500 260.586548,269.664917 262.856628,268.704407 
	C261.737427,266.507690 261.124451,263.749146 259.414337,262.208191 
	C250.386429,254.073273 241.151611,246.161545 231.807434,238.390167 
	C230.186432,237.042023 227.702667,236.071625 225.608597,236.055267 
	C207.288803,235.912094 188.965607,235.928711 170.647659,236.191864 
	C168.487076,236.222916 165.795319,237.503296 164.302002,239.096832 
	C158.042633,245.776306 151.983658,252.663376 146.200409,259.758942 
	C144.052948,262.393707 141.006927,266.277405 141.635361,268.767670 
	C142.825577,273.483917 148.093719,271.016571 152.613068,271.586334 
z"/>
<path fill="#F2FAF5" opacity="1.000000" stroke="none" 
	d="
M315.657104,296.372620 
	C324.404510,308.581604 323.354095,319.128967 312.025330,332.022491 
	C313.727295,332.166016 315.106171,332.374390 316.486267,332.382874 
	C322.816467,332.421844 329.147156,332.378296 335.477295,332.419708 
	C338.440735,332.439056 341.345612,333.514801 340.666931,336.818970 
	C340.332458,338.447357 337.371368,339.659576 335.433960,340.773285 
	C334.682037,341.205536 333.475342,340.847809 332.475800,340.847809 
	C260.342316,340.847931 188.208817,340.856903 116.075348,340.818848 
	C112.769775,340.817078 108.168839,341.963165 108.047913,336.708038 
	C107.923683,331.308746 112.603554,332.485260 115.883301,332.439575 
	C124.492805,332.319672 133.105087,332.399078 143.114456,332.399078 
	C134.855042,325.353760 131.512390,317.466156 132.961197,307.895203 
	C133.874573,301.861176 136.940582,296.981049 141.679092,293.226196 
	C151.803818,285.203308 166.102570,286.571991 174.549545,296.150330 
	C182.540558,305.211609 183.226700,321.273621 170.451141,331.856201 
	C208.199875,331.856201 245.301437,331.856201 283.045532,331.856201 
	C277.340240,326.354584 273.437286,320.066986 273.579041,311.997803 
	C273.720032,303.976135 276.937500,297.486755 283.385315,292.721619 
	C293.501404,285.245483 305.949310,286.601837 315.657104,296.372620 
M145.790054,306.494690 
	C143.181915,311.761261 144.137405,316.572449 147.984558,320.753479 
	C151.468124,324.539337 155.897919,325.613617 160.753922,323.874084 
	C165.662079,322.115875 167.977814,318.209198 168.615311,313.235443 
	C169.293625,307.943207 166.277924,302.879791 161.340179,300.783600 
	C155.755936,298.413025 150.839600,300.034851 145.790054,306.494690 
M308.925598,316.200745 
	C310.637756,308.079376 306.849548,301.355408 299.818451,300.035858 
	C292.816681,298.721802 286.466309,303.336060 285.414459,310.502014 
	C284.562286,316.307465 288.047150,322.123657 293.465332,323.938812 
	C299.666534,326.016327 304.697754,323.693512 308.925598,316.200745 
z"/>
<path fill="#F9FCFA" opacity="1.000000" stroke="none" 
	d="
M357.078247,378.576416 
	C344.592072,378.575897 344.591522,378.575897 344.592010,366.711823 
	C344.592285,359.888458 344.691132,353.063263 344.559967,346.242462 
	C344.480469,342.109192 346.071960,340.073242 350.391449,340.089935 
	C368.697723,340.160583 387.004456,340.137268 405.310944,340.106140 
	C409.192291,340.099548 411.133850,341.696533 411.080780,345.790558 
	C410.964264,354.775909 410.908264,363.766724 411.099182,372.749512 
	C411.202515,377.612946 408.589050,378.621887 404.495209,378.603668 
	C388.851746,378.534027 373.207764,378.576111 357.078247,378.576416 
z"/>
<path fill="#10B74B" opacity="1.000000" stroke="none" 
	d="
M319.421173,186.791275 
	C315.138153,187.431564 311.226105,187.929626 306.705658,188.505173 
	C306.705658,195.078964 306.832886,201.844101 306.621582,208.598648 
	C306.564453,210.424820 305.842041,212.501221 304.730652,213.918228 
	C304.098816,214.723877 301.470520,215.093018 300.783325,214.483658 
	C299.477234,213.325546 298.198364,211.337189 298.166809,209.669830 
	C297.946564,198.025131 298.048370,186.374344 298.047699,174.725494 
	C298.047394,169.400314 298.113525,164.074066 298.027435,158.750290 
	C297.964172,154.840668 299.565369,152.798782 303.656464,152.965714 
	C306.148499,153.067383 308.648071,152.980759 311.144257,152.983765 
	C320.603394,152.995148 326.213867,156.892212 328.339630,164.924911 
	C330.822845,174.308319 327.783844,182.032181 319.421173,186.791275 
M314.931519,179.123734 
	C319.893402,177.023712 321.895477,171.584351 319.794250,165.912292 
	C318.186432,161.572098 313.879150,160.256256 306.957825,162.034851 
	C306.957825,167.611542 306.957825,173.205261 306.957825,179.232697 
	C309.486725,179.232697 311.765442,179.232697 314.931519,179.123734 
z"/>
<path fill="#0BB648" opacity="1.000000" stroke="none" 
	d="
M352.184967,166.926804 
	C355.260284,166.843613 357.864075,166.843613 360.676544,166.843613 
	C360.676544,178.393936 360.676544,189.428757 360.676544,200.754837 
	C357.609680,200.754837 354.686676,200.754837 351.029968,200.754837 
	C351.029968,194.682388 350.942657,188.453217 351.057281,182.227737 
	C351.150726,177.152847 351.485596,172.082413 352.184967,166.926804 
z"/>
<path fill="#0EB74A" opacity="1.000000" stroke="none" 
	d="
M152.133499,271.586304 
	C148.093719,271.016571 142.825577,273.483917 141.635361,268.767670 
	C141.006927,266.277405 144.052948,262.393707 146.200409,259.758942 
	C151.983658,252.663376 158.042633,245.776306 164.302002,239.096832 
	C165.795319,237.503296 168.487076,236.222916 170.647659,236.191864 
	C188.965607,235.928711 207.288803,235.912094 225.608597,236.055267 
	C227.702667,236.071625 230.186432,237.042023 231.807434,238.390167 
	C241.151611,246.161545 250.386429,254.073273 259.414337,262.208191 
	C261.124451,263.749146 261.737427,266.507690 262.856628,268.704407 
	C260.586548,269.664917 258.320709,271.450500 256.045715,271.462250 
	C221.568863,271.640503 187.090836,271.586182 152.133499,271.586304 
M158.089264,258.666382 
	C157.081818,259.880737 156.074387,261.095093 154.754211,262.686401 
	C168.755753,262.686401 182.061737,262.686401 195.482086,262.686401 
	C195.482086,256.590698 195.482086,250.845718 195.482086,244.439972 
	C193.143768,244.439972 190.985092,244.746536 188.942032,244.390213 
	C175.659805,242.073837 165.425980,246.323868 158.089264,258.666382 
M223.500458,263.031525 
	C231.163040,263.031525 238.825607,263.031525 247.670731,263.031525 
	C240.357269,256.760010 234.198135,251.421844 227.954742,246.184082 
	C226.994553,245.378555 225.657333,244.581207 224.476227,244.553329 
	C217.858017,244.397064 211.234238,244.478104 204.361588,244.478104 
	C204.361588,250.851761 204.361588,256.741333 204.361588,263.031525 
	C210.587845,263.031525 216.544327,263.031525 223.500458,263.031525 
z"/>
<path fill="#0FB74A" opacity="1.000000" stroke="none" 
	d="
M145.949432,306.151428 
	C150.839600,300.034851 155.755936,298.413025 161.340179,300.783600 
	C166.277924,302.879791 169.293625,307.943207 168.615311,313.235443 
	C167.977814,318.209198 165.662079,322.115875 160.753922,323.874084 
	C155.897919,325.613617 151.468124,324.539337 147.984558,320.753479 
	C144.137405,316.572449 143.181915,311.761261 145.949432,306.151428 
M152.934845,308.619568 
	C150.865280,311.559326 151.108871,314.553864 154.060013,316.330750 
	C155.458557,317.172791 158.965927,316.945160 159.693100,315.914581 
	C160.861847,314.258148 161.401840,311.145508 160.613174,309.347504 
	C159.286087,306.321960 156.326996,306.113159 152.934845,308.619568 
z"/>
<path fill="#0EB74A" opacity="1.000000" stroke="none" 
	d="
M308.798706,316.559570 
	C304.697754,323.693512 299.666534,326.016327 293.465332,323.938812 
	C288.047150,322.123657 284.562286,316.307465 285.414459,310.502014 
	C286.466309,303.336060 292.816681,298.721802 299.818451,300.035858 
	C306.849548,301.355408 310.637756,308.079376 308.798706,316.559570 
M300.202606,316.688293 
	C302.701324,314.386230 303.811462,311.503052 301.194702,309.006439 
	C299.902740,307.773743 296.397247,307.025208 295.296814,307.875000 
	C293.795929,309.034088 292.771118,312.069214 293.093842,314.046844 
	C293.632111,317.345276 296.375153,318.250275 300.202606,316.688293 
z"/>
<path fill="#F9FCFA" opacity="1.000000" stroke="none" 
	d="
M314.487854,179.178223 
	C311.765442,179.232697 309.486725,179.232697 306.957825,179.232697 
	C306.957825,173.205261 306.957825,167.611542 306.957825,162.034851 
	C313.879150,160.256256 318.186432,161.572098 319.794250,165.912292 
	C321.895477,171.584351 319.893402,177.023712 314.487854,179.178223 
z"/>
<path fill="#F5FBF7" opacity="1.000000" stroke="none" 
	d="
M158.326416,258.394440 
	C165.425980,246.323868 175.659805,242.073837 188.942032,244.390213 
	C190.985092,244.746536 193.143768,244.439972 195.482086,244.439972 
	C195.482086,250.845718 195.482086,256.590698 195.482086,262.686401 
	C182.061737,262.686401 168.755753,262.686401 154.754211,262.686401 
	C156.074387,261.095093 157.081818,259.880737 158.326416,258.394440 
z"/>
<path fill="#F7FBF8" opacity="1.000000" stroke="none" 
	d="
M223.000626,263.031525 
	C216.544327,263.031525 210.587845,263.031525 204.361588,263.031525 
	C204.361588,256.741333 204.361588,250.851761 204.361588,244.478104 
	C211.234238,244.478104 217.858017,244.397064 224.476227,244.553329 
	C225.657333,244.581207 226.994553,245.378555 227.954742,246.184082 
	C234.198135,251.421844 240.357269,256.760010 247.670731,263.031525 
	C238.825607,263.031525 231.163040,263.031525 223.000626,263.031525 
z"/>
<path fill="#F4FAF6" opacity="1.000000" stroke="none" 
	d="
M153.216064,308.324402 
	C156.326996,306.113159 159.286087,306.321960 160.613174,309.347504 
	C161.401840,311.145508 160.861847,314.258148 159.693100,315.914581 
	C158.965927,316.945160 155.458557,317.172791 154.060013,316.330750 
	C151.108871,314.553864 150.865280,311.559326 153.216064,308.324402 
z"/>
<path fill="#EFF9F2" opacity="1.000000" stroke="none" 
	d="
M299.889008,316.867096 
	C296.375153,318.250275 293.632111,317.345276 293.093842,314.046844 
	C292.771118,312.069214 293.795929,309.034088 295.296814,307.875000 
	C296.397247,307.025208 299.902740,307.773743 301.194702,309.006439 
	C303.811462,311.503052 302.701324,314.386230 299.889008,316.867096 
z"/>
</svg>